<?xml version="1.0" encoding="UTF-8" standalone="no"?>
<svg
   xmlns:dc="http://purl.org/dc/elements/1.1/"
   xmlns:cc="http://creativecommons.org/ns#"
   xmlns:rdf="http://www.w3.org/1999/02/22-rdf-syntax-ns#"
   xmlns:svg="http://www.w3.org/2000/svg"
   xmlns="http://www.w3.org/2000/svg"
   xmlns:sodipodi="http://sodipodi.sourceforge.net/DTD/sodipodi-0.dtd"
   xmlns:inkscape="http://www.inkscape.org/namespaces/inkscape"
   width="210mm"
   height="297mm"
   viewBox="0 0 210 297"
   version="1.1"
   id="svg8"
   inkscape:version="1.0 (4035a4fb49, 2020-05-01)"
   sodipodi:docname="Move_logo_white_Runner.svg">
  <defs
     id="defs2" />
  <sodipodi:namedview
     id="base"
     pagecolor="#ffffff"
     bordercolor="#666666"
     borderopacity="1.0"
     inkscape:pageopacity="0.0"
     inkscape:pageshadow="2"
     inkscape:zoom="0.74243088"
     inkscape:cx="415.76902"
     inkscape:cy="559.2091"
     inkscape:document-units="mm"
     inkscape:current-layer="layer1"
     inkscape:document-rotation="0"
     showgrid="false"
     inkscape:window-width="1920"
     inkscape:window-height="991"
     inkscape:window-x="-9"
     inkscape:window-y="-9"
     inkscape:window-maximized="1" />
  <metadata
     id="metadata5">
    <rdf:RDF>
      <cc:Work
         rdf:about="">
        <dc:format>image/svg+xml</dc:format>
        <dc:type
           rdf:resource="http://purl.org/dc/dcmitype/StillImage" />
        <dc:title></dc:title>
      </cc:Work>
    </rdf:RDF>
  </metadata>
  <g
     inkscape:label="Layer 1"
     inkscape:groupmode="layer"
     id="layer1">
    <g
       inkscape:export-ydpi="187.77965"
       inkscape:export-xdpi="187.77965"
       style="fill:#ffffff"
       transform="translate(-2.1382462,4.9892414)"
       id="g832">
      <path
         id="path844"
         d="m 61.985455,151.64708 c 4.256484,-0.0409 11.22164,-0.0409 15.478124,0 4.256484,0.0409 0.773906,0.0743 -7.739062,0.0743 -8.512968,0 -11.995546,-0.0334 -7.739062,-0.0743 z m 109.975375,-40.08453 -0.50403,-0.59531 0.59532,0.50403 c 0.32742,0.27721 0.59531,0.5451 0.59531,0.59531 0,0.21173 -0.21294,0.0554 -0.6866,-0.50403 z m -50.00625,-14.287498 -0.50402,-0.595312 0.59531,0.504028 c 0.55944,0.473662 0.71576,0.686596 0.50403,0.686596 -0.0502,0 -0.3181,-0.26789 -0.59532,-0.595312 z"
         style="fill:#ffffff;fill-opacity:1;stroke-width:1" />
      <path
         id="path842"
         d="m 123.9641,200.16421 c 0,-0.0549 0.20836,-0.2633 0.46302,-0.46302 0.41964,-0.3291 0.429,-0.31975 0.0999,0.0999 -0.34564,0.44073 -0.56291,0.58089 -0.56291,0.36312 z m -78.274889,-39.5876 c 0,-0.3638 0.06005,-0.51263 0.133452,-0.33073 0.0734,0.1819 0.0734,0.47956 0,0.66146 -0.0734,0.1819 -0.133452,0.0331 -0.133452,-0.33073 z m 90.411969,-2.84427 c -0.32911,-0.41964 -0.31975,-0.429 0.0999,-0.0999 0.44073,0.34565 0.58088,0.56292 0.36312,0.56292 -0.0549,0 -0.2633,-0.20836 -0.46302,-0.46302 z m 38.41922,-39.90798 c 0.0127,-0.30823 0.0754,-0.37092 0.15985,-0.15986 0.0764,0.191 0.067,0.4192 -0.0209,0.50712 -0.0879,0.0879 -0.15046,-0.0684 -0.13897,-0.34726 z m -38.45162,-14.04381 c 0.18191,-0.0734 0.47956,-0.0734 0.66146,0 0.1819,0.0734 0.0331,0.13346 -0.33073,0.13346 -0.3638,0 -0.51263,-0.0601 -0.33073,-0.13346 z m -15.04885,-7.43154 c -0.32911,-0.419645 -0.31975,-0.429003 0.0999,-0.0999 0.25466,0.199721 0.46302,0.40808 0.46302,0.463021 0,0.217763 -0.21728,0.0776 -0.56292,-0.363125 z M 152.2954,82.105608 c 0.0127,-0.308224 0.0754,-0.370919 0.15985,-0.159852 0.0764,0.190996 0.067,0.419199 -0.0209,0.507118 -0.0879,0.08792 -0.15046,-0.06835 -0.13897,-0.347266 z m -29.08328,-0.639409 c 0,-0.363802 0.0601,-0.512631 0.13346,-0.33073 0.0734,0.181901 0.0734,0.479558 0,0.661459 -0.0734,0.181901 -0.13346,0.03307 -0.13346,-0.330729 z m 29.08328,-0.683507 c 0.0127,-0.308225 0.0754,-0.37092 0.15985,-0.159853 0.0764,0.190996 0.067,0.419199 -0.0209,0.507118 -0.0879,0.08792 -0.15046,-0.06835 -0.13897,-0.347265 z"
         style="fill:#ffffff;fill-opacity:1;stroke-width:1" />
      <path
         id="path840"
         d="m 90.57699,169.12712 c 0.190995,-0.0764 0.419198,-0.067 0.507119,0.0209 0.08792,0.0879 -0.06835,0.15045 -0.347266,0.13896 -0.308226,-0.0127 -0.370919,-0.0754 -0.159853,-0.15985 z m -14.022916,-41.275 c 0.190995,-0.0764 0.419198,-0.067 0.507119,0.0209 0.08792,0.0879 -0.06835,0.15045 -0.347266,0.13896 -0.308226,-0.0127 -0.370919,-0.0754 -0.159853,-0.15985 z m -7.826506,-8.55051 c 0,-0.50932 0.05445,-0.71768 0.121,-0.46302 0.06655,0.25466 0.06655,0.67138 0,0.92604 -0.06655,0.25467 -0.121,0.0463 -0.121,-0.46302 z m 96.197332,-10.2349 c 0.191,-0.0764 0.4192,-0.067 0.50712,0.0209 0.0879,0.0879 -0.0683,0.15046 -0.34726,0.13897 -0.30823,-0.0127 -0.37092,-0.0754 -0.15986,-0.15985 z"
         style="fill:#ffffff;fill-opacity:1;stroke-width:1" />
      <path
         id="path838"
         d="m 171.5891,124.2288 c 0,-0.0549 0.20835,-0.2633 0.46302,-0.46302 0.41964,-0.32911 0.429,-0.31975 0.0999,0.0999 -0.34564,0.44073 -0.56291,0.58088 -0.56291,0.36312 z m -5.87045,-15.16209 c 0.191,-0.0764 0.4192,-0.067 0.50712,0.0209 0.0879,0.0879 -0.0684,0.15046 -0.34726,0.13897 -0.30823,-0.0127 -0.37092,-0.0754 -0.15986,-0.15985 z"
         style="fill:#ffffff;fill-opacity:1;stroke-width:1" />
      <path
         id="path836"
         d="m 63.327695,169.10952 c 4.994715,-0.0403 13.090965,-0.0403 17.991665,5e-5 4.900699,0.0403 0.814115,0.0733 -9.081301,0.0732 -9.895417,-3e-5 -13.905081,-0.033 -8.910364,-0.0733 z"
         style="fill:#ffffff;fill-opacity:1;stroke-width:1" />
      <path
         id="path834"
         d="m 116.08504,202.01198 c -2.66438,-0.67269 -5.10979,-2.89613 -6.01876,-5.47243 -0.21433,-0.60746 -0.38968,-1.95672 -0.38968,-2.99836 0,-1.84276 0.1322,-2.22203 4.89646,-14.04746 2.69306,-6.68446 4.92549,-12.29187 4.96094,-12.46092 0.0355,-0.16904 -3.50098,-3.11293 -7.85877,-6.54198 l -7.92323,-6.23464 -0.97033,1.63886 c -0.53368,0.90137 -2.02588,3.42479 -3.316001,5.6076 -2.701073,4.57008 -3.512118,5.55661 -5.451464,6.63097 l -1.403231,0.77737 -19.882762,0.0726 c -19.834849,0.0724 -19.886453,0.0712 -21.415607,-0.50093 -1.833432,-0.68597 -3.674335,-2.41367 -4.618152,-4.33415 -0.911359,-1.85444 -0.92111,-5.19258 -0.02103,-7.20031 0.733395,-1.63592 2.713602,-3.58122 4.472788,-4.39393 1.229106,-0.56782 1.497399,-0.57861 17.629009,-0.70889 l 16.380909,-0.13229 12.140454,-21.16667 c 6.677247,-11.64166 12.316477,-21.49408 12.531607,-21.89427 l 0.39116,-0.7276 h -8.31098 -8.310977 l -4.461957,8.13594 c -4.995243,9.10832 -5.796028,10.16699 -8.446349,11.16638 -2.25984,0.85215 -5.237257,0.69099 -7.225421,-0.39111 -3.045087,-1.65734 -4.670525,-4.5892 -4.470331,-8.06329 0.135377,-2.34925 -0.345774,-1.33577 6.877531,-14.48671 5.979099,-10.885714 6.616324,-11.786534 9.199486,-13.005001 l 1.455208,-0.686416 15.35352,-0.07794 15.35353,-0.07794 0.61419,1.268561 c 1.48787,3.073076 4.41496,6.323715 7.6878,8.537576 3.14882,2.12997 8.05602,3.70461 11.58136,3.71625 l 1.53251,0.005 2.0277,3.10379 c 1.11524,1.70708 3.17272,4.84774 4.57219,6.97923 l 2.54448,3.87544 7.33407,-4.07595 c 4.03373,-2.24178 7.75078,-4.19343 8.2601,-4.33699 2.89408,-0.81578 6.43632,0.059 8.45948,2.08902 1.88482,1.89127 2.50746,3.40852 2.50887,6.11366 0.002,2.90089 -0.67796,4.52272 -2.6349,6.28917 -1.92864,1.74092 -23.00124,13.41475 -24.98192,13.83953 -2.43732,0.52271 -5.16325,-0.13112 -7.281,-1.74642 -0.55134,-0.42052 -2.58091,-3.23485 -5.06849,-7.02828 -2.28192,-3.4798 -4.22159,-6.32392 -4.31039,-6.32025 -0.0888,0.004 -2.57238,4.14109 -5.51909,9.19427 -2.94671,5.05318 -5.65596,9.68328 -6.02057,10.28911 l -0.66292,1.10151 8.66641,6.80975 c 4.76652,3.74537 9.09853,7.21867 9.6267,7.71845 0.52817,0.49979 1.2961,1.58316 1.70652,2.40749 0.62572,1.25678 0.74836,1.84057 0.75949,3.61546 l 0.0133,2.11667 -6.327,15.7427 c -3.47984,8.65849 -6.66803,16.24516 -7.08485,16.85926 -1.93449,2.85006 -5.74475,4.26958 -9.15158,3.40944 z M 136.13292,95.753333 c -7.18946,-0.892225 -12.69799,-7.090142 -12.69799,-14.287134 0,-4.805791 2.61957,-9.560629 6.73589,-12.226456 4.51286,-2.922636 10.87468,-2.920299 15.36781,0.0056 6.3807,4.155151 8.56462,12.288998 5.08615,18.94306 -1.16068,2.220296 -4.09699,5.090757 -6.28777,6.146754 -2.59939,1.252961 -5.49785,1.753979 -8.20409,1.41813 z"
         style="fill:#ffffff;fill-opacity:1;stroke-width:1" />
    </g>
  </g>
</svg>
